# xmcd
# 
# Track frame offsets:
#     150
#     21474
#     47599
#     67161
# 
# Disc length: 1131
# 
# Revision: 0
# Processed by: cddbd v1.5.2PL0 Copyright (c) Steve Scherf et al.
# Submitted via: BonkEnc v1.0.8
# 
DISCID=35046904
DTITLE=HELLAMOR - HELLAMOR
DYEAR=2007
DGENRE=Stoner Rock
TTITLE0=Cross The Line
TTITLE1=These Two Words
TTITLE2=After All
TTITLE3=Would You
EXTD=The Denim EP
EXTT0=
EXTT1=
EXTT2=
EXTT3=
PLAYORDER=
